<svg width="90" height="89" viewBox="0 0 90 89" fill="none" xmlns="http://www.w3.org/2000/svg">
<path d="M85.0001 44.3677L89.0379 46.354L89.9624 44.4747L89.1198 42.5573L85.0001 44.3677ZM84.9559 44.4574L80.918 42.4711L80.4692 43.3834L80.4563 44.4001L84.9559 44.4574ZM84.8587 52.0883L88.8195 54.2241L89.3442 53.251L89.3583 52.1457L84.8587 52.0883ZM81.1746 58.9206L77.2137 56.7848L77.1795 56.8484L77.1473 56.9129L81.1746 58.9206ZM77.8423 65.605L73.815 63.5973L73.7828 63.6619L73.7526 63.7276L77.8423 65.605ZM74.5369 72.8054L76.6759 76.7645L77.9991 76.0496L78.6265 74.6828L74.5369 72.8054ZM67.6102 76.5478L69.3963 80.6781L69.5765 80.6002L69.7493 80.5069L67.6102 76.5478ZM60.7039 79.5342L62.2508 83.7599L62.3717 83.7157L62.49 83.6645L60.7039 79.5342ZM53.7001 82.098L53.9269 86.5923L54.6072 86.5579L55.2469 86.3237L53.7001 82.098ZM46.2558 82.4736L46.029 77.9793L45.7322 77.9943L45.4398 78.0482L46.2558 82.4736ZM38.5174 83.9005L36.8044 88.0617L38.03 88.5662L39.3334 88.3259L38.5174 83.9005ZM31.3447 80.9478L33.0577 76.7866L33.0312 76.7757L33.0047 76.7652L31.3447 80.9478ZM24.1693 78.1001L20.9489 81.2432L21.6184 81.9292L22.5093 82.2828L24.1693 78.1001ZM18.7737 72.5718L15.2737 75.4003L15.4062 75.5642L15.5533 75.7149L18.7737 72.5718ZM14.0363 66.7098L10.0595 68.8158L10.263 69.2001L10.5364 69.5383L14.0363 66.7098ZM10.5322 60.0928L14.509 57.9868L14.4028 57.7862L14.2769 57.5973L10.5322 60.0928ZM6.13079 53.4881L1.6623 54.0198L1.78942 55.0882L2.38612 55.9836L6.13079 53.4881ZM5.20265 45.6872L0.755553 44.9992L0.661434 45.6075L0.734163 46.2188L5.20265 45.6872ZM6.39742 37.9644L1.97559 37.1293L1.96174 37.2027L1.95033 37.2764L6.39742 37.9644ZM7.84253 30.3128L3.73467 28.4756L3.51882 28.9582L3.42071 29.4777L7.84253 30.3128ZM11.0481 23.1455L8.33015 19.559L7.41106 20.2556L6.94024 21.3083L11.0481 23.1455ZM17.3916 18.3381L20.1096 21.9246L20.6849 21.4886L21.095 20.8945L17.3916 18.3381ZM21.8523 11.8758L20.1605 7.70597L18.9134 8.21195L18.1489 9.31951L21.8523 11.8758ZM29.0668 8.94869L30.7586 13.1185L31.0478 13.0012L31.3179 12.8451L29.0668 8.94869ZM35.8701 5.01802L36.0966 0.523727L34.7695 0.456841L33.6189 1.12159L35.8701 5.01802ZM43.7267 5.41399L43.5002 9.90829L43.6912 9.91791L43.8822 9.91131L43.7267 5.41399ZM51.379 5.14948L52.2042 0.725794L51.7179 0.635082L51.2235 0.65217L51.379 5.14948ZM58.9941 6.57003L61.4898 2.82553L60.724 2.31511L59.8193 2.14634L58.9941 6.57003ZM65.4436 10.8687L68.2839 7.37834L68.1177 7.24304L67.9393 7.12416L65.4436 10.8687ZM71.2786 15.6171L74.3769 12.3536L74.2523 12.2352L74.1189 12.1268L71.2786 15.6171ZM76.7474 20.8091L80.4506 18.2526L80.1849 17.8676L79.8457 17.5456L76.7474 20.8091ZM81.0772 27.0813L85.2084 25.2971L85.0325 24.8898L84.7805 24.5248L81.0772 27.0813ZM84.1294 34.1485L88.6275 34.2812L88.657 33.282L88.2606 32.3643L84.1294 34.1485ZM83.9017 41.8681L79.4036 41.7354L79.3737 42.7496L79.7819 43.6785L83.9017 41.8681ZM85.0001 44.3677L80.9622 42.3814L80.918 42.4711L84.9559 44.4574L88.9938 46.4438L89.0379 46.354L85.0001 44.3677ZM84.9559 44.4574L80.4563 44.4001L80.359 52.031L84.8587 52.0883L89.3583 52.1457L89.4556 44.5148L84.9559 44.4574ZM84.8587 52.0883L80.8978 49.9526L77.2137 56.7848L81.1746 58.9206L85.1355 61.0564L88.8195 54.2241L84.8587 52.0883ZM81.1746 58.9206L77.1473 56.9129L73.815 63.5973L77.8423 65.605L81.8696 67.6127L85.2019 60.9283L81.1746 58.9206ZM77.8423 65.605L73.7526 63.7276L70.4472 70.928L74.5369 72.8054L78.6265 74.6828L81.932 67.4824L77.8423 65.605ZM74.5369 72.8054L72.3978 68.8463L65.4712 72.5887L67.6102 76.5478L69.7493 80.5069L76.6759 76.7645L74.5369 72.8054ZM67.6102 76.5478L65.8242 72.4174L58.9179 75.4038L60.7039 79.5342L62.49 83.6645L69.3963 80.6781L67.6102 76.5478ZM60.7039 79.5342L59.157 75.3084L52.1532 77.8722L53.7001 82.098L55.2469 86.3237L62.2508 83.7599L60.7039 79.5342ZM53.7001 82.098L53.4733 77.6037L46.029 77.9793L46.2558 82.4736L46.4826 86.9679L53.9269 86.5923L53.7001 82.098ZM46.2558 82.4736L45.4398 78.0482L37.7014 79.4751L38.5174 83.9005L39.3334 88.3259L47.0718 86.899L46.2558 82.4736ZM38.5174 83.9005L40.2304 79.7393L33.0577 76.7866L31.3447 80.9478L29.6317 85.109L36.8044 88.0617L38.5174 83.9005ZM31.3447 80.9478L33.0047 76.7652L25.8293 73.9175L24.1693 78.1001L22.5093 82.2828L29.6847 85.1305L31.3447 80.9478ZM24.1693 78.1001L27.3897 74.957L21.9941 69.4287L18.7737 72.5718L15.5533 75.7149L20.9489 81.2432L24.1693 78.1001ZM18.7737 72.5718L22.2736 69.7433L17.5363 63.8813L14.0363 66.7098L10.5364 69.5383L15.2737 75.4003L18.7737 72.5718ZM14.0363 66.7098L18.0131 64.6038L14.509 57.9868L10.5322 60.0928L6.55539 62.1987L10.0595 68.8158L14.0363 66.7098ZM10.5322 60.0928L14.2769 57.5973L9.87545 50.9926L6.13079 53.4881L2.38612 55.9836L6.78753 62.5882L10.5322 60.0928ZM6.13079 53.4881L10.5993 52.9565L9.67113 45.1555L5.20265 45.6872L0.734163 46.2188L1.6623 54.0198L6.13079 53.4881ZM5.20265 45.6872L9.64974 46.3752L10.8445 38.6524L6.39742 37.9644L1.95033 37.2764L0.755553 44.9992L5.20265 45.6872ZM6.39742 37.9644L10.8193 38.7996L12.2644 31.148L7.84253 30.3128L3.42071 29.4777L1.97559 37.1293L6.39742 37.9644ZM7.84253 30.3128L11.9504 32.1501L15.156 24.9827L11.0481 23.1455L6.94024 21.3083L3.73467 28.4756L7.84253 30.3128ZM11.0481 23.1455L13.7661 26.732L20.1096 21.9246L17.3916 18.3381L14.6736 14.7517L8.33015 19.559L11.0481 23.1455ZM17.3916 18.3381L21.095 20.8945L25.5557 14.4321L21.8523 11.8758L18.1489 9.31951L13.6882 15.7818L17.3916 18.3381ZM21.8523 11.8758L23.5441 16.0457L30.7586 13.1185L29.0668 8.94869L27.3749 4.77884L20.1605 7.70597L21.8523 11.8758ZM29.0668 8.94869L31.3179 12.8451L38.1213 8.91445L35.8701 5.01802L33.6189 1.12159L26.8156 5.05226L29.0668 8.94869ZM35.8701 5.01802L35.6436 9.51232L43.5002 9.90829L43.7267 5.41399L43.9533 0.919696L36.0966 0.523727L35.8701 5.01802ZM43.7267 5.41399L43.8822 9.91131L51.5345 9.6468L51.379 5.14948L51.2235 0.65217L43.5713 0.916677L43.7267 5.41399ZM51.379 5.14948L50.5538 9.57317L58.1689 10.9937L58.9941 6.57003L59.8193 2.14634L52.2042 0.725794L51.379 5.14948ZM58.9941 6.57003L56.4984 10.3145L62.9478 14.6132L65.4436 10.8687L67.9393 7.12416L61.4898 2.82553L58.9941 6.57003ZM65.4436 10.8687L62.6032 14.359L68.4382 19.1074L71.2786 15.6171L74.1189 12.1268L68.2839 7.37834L65.4436 10.8687ZM71.2786 15.6171L68.1803 18.8806L73.649 24.0726L76.7474 20.8091L79.8457 17.5456L74.3769 12.3536L71.2786 15.6171ZM76.7474 20.8091L73.0441 23.3656L77.374 29.6377L81.0772 27.0813L84.7805 24.5248L80.4506 18.2526L76.7474 20.8091ZM81.0772 27.0813L76.9461 28.8654L79.9983 35.9327L84.1294 34.1485L88.2606 32.3643L85.2084 25.2971L81.0772 27.0813ZM84.1294 34.1485L79.6314 34.0158L79.4036 41.7354L83.9017 41.8681L88.3997 42.0009L88.6275 34.2812L84.1294 34.1485ZM83.9017 41.8681L79.7819 43.6785L80.8803 46.1781L85.0001 44.3677L89.1198 42.5573L88.0215 40.0578L83.9017 41.8681Z" fill="#D4E1EA"/>
<path d="M67.2724 39.8014L62.9345 39.186C62.638 38.2661 62.2663 37.3704 61.8236 36.5094L64.4597 32.996C64.945 32.3502 64.88 31.4444 64.3094 30.8717L59.7115 26.2738C59.1408 25.7011 58.233 25.6401 57.5892 26.1215L54.0738 28.7575C53.2106 28.3148 52.3151 27.9432 51.3971 27.6467L50.7818 23.3108C50.668 22.5086 49.9816 21.9135 49.1733 21.9135H42.6745C41.8662 21.9135 41.1798 22.5086 41.066 23.3108L40.4507 27.6487C39.5307 27.9452 38.6371 28.3169 37.774 28.7576L34.2586 26.1215C33.6087 25.6362 32.7049 25.7011 32.1343 26.2718L27.5364 30.8697C26.9657 31.4404 26.9007 32.3461 27.3861 32.994L30.0222 36.5074C29.5794 37.3705 29.2078 38.2661 28.9133 39.1841L24.5753 39.8015C23.7731 39.9152 23.1781 40.6016 23.1781 41.4099V47.9087C23.1781 48.717 23.7731 49.4034 24.5753 49.5172L28.9133 50.1325C29.2098 51.0525 29.5815 51.9461 30.0222 52.8092L27.3861 56.3246C26.9007 56.9725 26.9657 57.8762 27.5364 58.4489L32.1343 63.0468C32.705 63.6196 33.6087 63.6825 34.2586 63.1971L37.772 60.5611C38.6351 61.0038 39.5307 61.3754 40.4486 61.6699L41.064 66.0079C41.1798 66.8101 41.8662 67.4051 42.6745 67.4051H49.1733C49.9816 67.4051 50.668 66.8101 50.7818 66.0079L51.3971 61.6699C52.3151 61.3734 53.2107 61.0017 54.0738 60.559L57.5892 63.1951C58.233 63.6764 59.1408 63.6155 59.7115 63.0428L64.3094 58.4449C64.8801 57.8721 64.9451 56.9684 64.4597 56.3206L61.8236 52.8072C62.2663 51.944 62.638 51.0485 62.9345 50.1305L67.2724 49.5152C68.0746 49.4035 68.6697 48.717 68.6697 47.9088V41.41C68.6697 40.6017 68.0746 39.9152 67.2724 39.8014ZM45.9242 54.4076C40.5484 54.4076 36.176 50.0351 36.176 44.6594C36.176 39.2837 40.5485 34.9112 45.9242 34.9112C51.2999 34.9112 55.6724 39.2837 55.6724 44.6594C55.6724 50.0351 51.2999 54.4076 45.9242 54.4076Z" fill="#D4E1EA"/>
</svg>
