<svg width="90" height="89" viewBox="0 0 90 89" fill="none" xmlns="http://www.w3.org/2000/svg">
<path d="M84.7354 44.3677L88.7733 46.354L89.6978 44.4747L88.8552 42.5573L84.7354 44.3677ZM84.6913 44.4574L80.6534 42.4711L80.2046 43.3834L80.1916 44.4001L84.6913 44.4574ZM84.594 52.0883L88.5549 54.2241L89.0796 53.251L89.0937 52.1457L84.594 52.0883ZM80.91 58.9206L76.9491 56.7848L76.9148 56.8484L76.8827 56.9129L80.91 58.9206ZM77.5777 65.605L73.5504 63.5973L73.5181 63.6619L73.488 63.7276L77.5777 65.605ZM74.2722 72.8054L76.4113 76.7645L77.7345 76.0496L78.3619 74.6828L74.2722 72.8054ZM67.3456 76.5478L69.1316 80.6781L69.3119 80.6002L69.4847 80.5069L67.3456 76.5478ZM60.4393 79.5342L61.9861 83.7599L62.1071 83.7157L62.2253 83.6645L60.4393 79.5342ZM53.4354 82.098L53.6622 86.5923L54.3426 86.5579L54.9823 86.3237L53.4354 82.098ZM45.9912 82.4736L45.7644 77.9793L45.4675 77.9943L45.1752 78.0482L45.9912 82.4736ZM38.2527 83.9005L36.5398 88.0617L37.7653 88.5662L39.0687 88.3259L38.2527 83.9005ZM31.08 80.9478L32.793 76.7866L32.7666 76.7757L32.74 76.7652L31.08 80.9478ZM23.9047 78.1001L20.6843 81.2432L21.3538 81.9292L22.2447 82.2828L23.9047 78.1001ZM18.509 72.5718L15.0091 75.4003L15.1415 75.5642L15.2887 75.7149L18.509 72.5718ZM13.7717 66.7098L9.79487 68.8158L9.99838 69.2001L10.2717 69.5383L13.7717 66.7098ZM10.2675 60.0928L14.2444 57.9868L14.1381 57.7862L14.0122 57.5973L10.2675 60.0928ZM5.86614 53.4881L1.39765 54.0198L1.52478 55.0882L2.12147 55.9836L5.86614 53.4881ZM4.938 45.6872L0.490904 44.9992L0.396785 45.6075L0.469515 46.2188L4.938 45.6872ZM6.13277 37.9644L1.71095 37.1293L1.69709 37.2027L1.68568 37.2764L6.13277 37.9644ZM7.57789 30.3128L3.47002 28.4756L3.25417 28.9582L3.15606 29.4777L7.57789 30.3128ZM10.7835 23.1455L8.0655 19.559L7.14641 20.2556L6.67559 21.3083L10.7835 23.1455ZM17.127 18.3381L19.8449 21.9246L20.4203 21.4886L20.8304 20.8945L17.127 18.3381ZM21.5876 11.8758L19.8958 7.70597L18.6487 8.21195L17.8842 9.31951L21.5876 11.8758ZM28.8021 8.94869L30.494 13.1185L30.7831 13.0012L31.0533 12.8451L28.8021 8.94869ZM35.6054 5.01802L35.832 0.523727L34.5048 0.456841L33.3543 1.12159L35.6054 5.01802ZM43.4621 5.41399L43.2356 9.90829L43.4265 9.91791L43.6175 9.91131L43.4621 5.41399ZM51.1143 5.14948L51.9396 0.725794L51.4533 0.635082L50.9589 0.65217L51.1143 5.14948ZM58.7295 6.57003L61.2252 2.82553L60.4594 2.31511L59.5547 2.14634L58.7295 6.57003ZM65.1789 10.8687L68.0193 7.37834L67.853 7.24304L67.6747 7.12416L65.1789 10.8687ZM71.0139 15.6171L74.1122 12.3536L73.9876 12.2352L73.8543 12.1268L71.0139 15.6171ZM76.4827 20.8091L80.186 18.2526L79.9203 17.8676L79.581 17.5456L76.4827 20.8091ZM80.8126 27.0813L84.9438 25.2971L84.7679 24.8898L84.5159 24.5248L80.8126 27.0813ZM83.8648 34.1485L88.3628 34.2812L88.3923 33.282L87.996 32.3643L83.8648 34.1485ZM83.637 41.8681L79.139 41.7354L79.1091 42.7496L79.5172 43.6785L83.637 41.8681ZM84.7354 44.3677L80.6975 42.3814L80.6534 42.4711L84.6913 44.4574L88.7291 46.4438L88.7733 46.354L84.7354 44.3677ZM84.6913 44.4574L80.1916 44.4001L80.0944 52.031L84.594 52.0883L89.0937 52.1457L89.1909 44.5148L84.6913 44.4574ZM84.594 52.0883L80.6332 49.9526L76.9491 56.7848L80.91 58.9206L84.8708 61.0564L88.5549 54.2241L84.594 52.0883ZM80.91 58.9206L76.8827 56.9129L73.5504 63.5973L77.5777 65.605L81.605 67.6127L84.9373 60.9283L80.91 58.9206ZM77.5777 65.605L73.488 63.7276L70.1826 70.928L74.2722 72.8054L78.3619 74.6828L81.6673 67.4824L77.5777 65.605ZM74.2722 72.8054L72.1332 68.8463L65.2065 72.5887L67.3456 76.5478L69.4847 80.5069L76.4113 76.7645L74.2722 72.8054ZM67.3456 76.5478L65.5596 72.4174L58.6532 75.4038L60.4393 79.5342L62.2253 83.6645L69.1316 80.6781L67.3456 76.5478ZM60.4393 79.5342L58.8924 75.3084L51.8885 77.8722L53.4354 82.098L54.9823 86.3237L61.9861 83.7599L60.4393 79.5342ZM53.4354 82.098L53.2086 77.6037L45.7644 77.9793L45.9912 82.4736L46.218 86.9679L53.6622 86.5923L53.4354 82.098ZM45.9912 82.4736L45.1752 78.0482L37.4367 79.4751L38.2527 83.9005L39.0687 88.3259L46.8072 86.899L45.9912 82.4736ZM38.2527 83.9005L39.9657 79.7393L32.793 76.7866L31.08 80.9478L29.3671 85.109L36.5398 88.0617L38.2527 83.9005ZM31.08 80.9478L32.74 76.7652L25.5647 73.9175L23.9047 78.1001L22.2447 82.2828L29.4201 85.1305L31.08 80.9478ZM23.9047 78.1001L27.1251 74.957L21.7294 69.4287L18.509 72.5718L15.2887 75.7149L20.6843 81.2432L23.9047 78.1001ZM18.509 72.5718L22.009 69.7433L17.2716 63.8813L13.7717 66.7098L10.2717 69.5383L15.0091 75.4003L18.509 72.5718ZM13.7717 66.7098L17.7485 64.6038L14.2444 57.9868L10.2675 60.0928L6.29074 62.1987L9.79487 68.8158L13.7717 66.7098ZM10.2675 60.0928L14.0122 57.5973L9.6108 50.9926L5.86614 53.4881L2.12147 55.9836L6.52288 62.5882L10.2675 60.0928ZM5.86614 53.4881L10.3346 52.9565L9.40648 45.1555L4.938 45.6872L0.469515 46.2188L1.39765 54.0198L5.86614 53.4881ZM4.938 45.6872L9.38509 46.3752L10.5799 38.6524L6.13277 37.9644L1.68568 37.2764L0.490904 44.9992L4.938 45.6872ZM6.13277 37.9644L10.5546 38.7996L11.9997 31.148L7.57789 30.3128L3.15606 29.4777L1.71095 37.1293L6.13277 37.9644ZM7.57789 30.3128L11.6858 32.1501L14.8913 24.9827L10.7835 23.1455L6.67559 21.3083L3.47002 28.4756L7.57789 30.3128ZM10.7835 23.1455L13.5014 26.732L19.8449 21.9246L17.127 18.3381L14.409 14.7517L8.0655 19.559L10.7835 23.1455ZM17.127 18.3381L20.8304 20.8945L25.2911 14.4321L21.5876 11.8758L17.8842 9.31951L13.4236 15.7818L17.127 18.3381ZM21.5876 11.8758L23.2795 16.0457L30.494 13.1185L28.8021 8.94869L27.1103 4.77884L19.8958 7.70597L21.5876 11.8758ZM28.8021 8.94869L31.0533 12.8451L37.8566 8.91445L35.6054 5.01802L33.3543 1.12159L26.5509 5.05226L28.8021 8.94869ZM35.6054 5.01802L35.3789 9.51232L43.2356 9.90829L43.4621 5.41399L43.6886 0.919696L35.832 0.523727L35.6054 5.01802ZM43.4621 5.41399L43.6175 9.91131L51.2698 9.6468L51.1143 5.14948L50.9589 0.65217L43.3066 0.916677L43.4621 5.41399ZM51.1143 5.14948L50.2891 9.57317L57.9042 10.9937L58.7295 6.57003L59.5547 2.14634L51.9396 0.725794L51.1143 5.14948ZM58.7295 6.57003L56.2337 10.3145L62.6832 14.6132L65.1789 10.8687L67.6747 7.12416L61.2252 2.82553L58.7295 6.57003ZM65.1789 10.8687L62.3386 14.359L68.1736 19.1074L71.0139 15.6171L73.8543 12.1268L68.0193 7.37834L65.1789 10.8687ZM71.0139 15.6171L67.9156 18.8806L73.3844 24.0726L76.4827 20.8091L79.581 17.5456L74.1122 12.3536L71.0139 15.6171ZM76.4827 20.8091L72.7794 23.3656L77.1093 29.6377L80.8126 27.0813L84.5159 24.5248L80.186 18.2526L76.4827 20.8091ZM80.8126 27.0813L76.6814 28.8654L79.7336 35.9327L83.8648 34.1485L87.996 32.3643L84.9438 25.2971L80.8126 27.0813ZM83.8648 34.1485L79.3668 34.0158L79.139 41.7354L83.637 41.8681L88.1351 42.0009L88.3628 34.2812L83.8648 34.1485ZM83.637 41.8681L79.5172 43.6785L80.6156 46.1781L84.7354 44.3677L88.8552 42.5573L87.7568 40.0578L83.637 41.8681Z" fill="#D4E1EA"/>
<path d="M69.8742 44.219C69.6428 44.7924 69.0837 45.1555 68.4474 45.1555H63.9933V61.4195C63.9933 64.4964 61.4867 67 58.3823 67H51.7302V54.5393C51.7302 51.9019 49.5707 49.7615 46.9098 49.7615H42.0894C39.4285 49.7615 37.269 51.9019 37.269 54.5393V67H30.6169C27.5126 67 25.0059 64.4964 25.0059 61.4195V45.1555H20.5518C19.9156 45.1555 19.3564 44.7923 19.125 44.219C18.8743 43.6457 19.0093 42.9768 19.4528 42.5372L40.5084 21.5911C42.6487 19.4696 46.3508 19.4696 48.4913 21.5911L55.5487 28.6051V24.8975C55.5487 24.3624 55.9729 23.9419 56.5128 23.9419H62.6444C63.1843 23.9419 63.6085 24.3624 63.6085 24.8975V36.6322L69.5472 42.5376C69.9907 42.9772 70.1257 43.6461 69.875 44.2194L69.8742 44.219Z" fill="#D4E1EA"/>
</svg>
